<?xml version="1.0" encoding="UTF-8"?>
<svg xmlns="http://www.w3.org/2000/svg" xmlns:xlink="http://www.w3.org/1999/xlink" width="24pt" height="24pt" viewBox="0 0 24 24" version="1.1">
<defs>
<linearGradient id="linear0" gradientUnits="userSpaceOnUse" x1="48" y1="47.9995" x2="48" y2="0" gradientTransform="matrix(0.5,0,0,0.5,0,0)">
<stop offset="0" style="stop-color:rgb(100%,100%,100%);stop-opacity:0.0117647;"/>
<stop offset="0.47509" style="stop-color:rgb(100%,100%,100%);stop-opacity:0.0117647;"/>
<stop offset="0.76042" style="stop-color:rgb(100%,100%,100%);stop-opacity:0.0431373;"/>
<stop offset="0.99531" style="stop-color:rgb(100%,100%,100%);stop-opacity:0.0980392;"/>
<stop offset="1" style="stop-color:rgb(100%,100%,100%);stop-opacity:0.101961;"/>
</linearGradient>
</defs>
<g id="surface1">
<path style=" stroke:none;fill-rule:evenodd;fill:rgb(17.254902%,18.823529%,21.176471%);fill-opacity:1;" d="M 11.867188 0 C 6.921875 0 3.492188 0.015625 1.734375 1.734375 C 0.015625 3.492188 0 7.082031 0 11.867188 C 5.3125 11.707031 7.742188 11.574219 9.683594 9.683594 C 11.574219 7.742188 11.707031 5.3125 11.867188 0 Z M 1.734375 22.265625 C 0.015625 20.507812 0 16.917969 0 12.132812 C 5.3125 12.292969 7.742188 12.425781 9.679688 14.320312 C 11.574219 16.257812 11.707031 18.6875 11.867188 24 C 6.921875 24 3.492188 23.984375 1.734375 22.265625 Z M 12.132812 24 C 12.292969 18.6875 12.425781 16.257812 14.320312 14.320312 C 16.257812 12.425781 18.6875 12.292969 24 12.132812 C 24 16.917969 23.984375 20.507812 22.265625 22.265625 C 20.503906 23.984375 17.078125 24 12.132812 24 Z M 12.132812 0 C 12.292969 5.3125 12.425781 7.742188 14.320312 9.683594 C 16.257812 11.574219 18.6875 11.707031 24 11.867188 C 24 7.082031 23.984375 3.492188 22.265625 1.734375 C 20.503906 0.015625 17.078125 0 12.132812 0 Z M 12.132812 0 "/>
<path style=" stroke:none;fill-rule:evenodd;fill:url(#linear0);" d="M 14.320312 14.320312 C 12.425781 16.257812 12.292969 18.6875 12.132812 24 C 17.078125 24 20.503906 23.984375 22.265625 22.265625 C 23.984375 20.507812 24 16.917969 24 12.132812 C 18.6875 12.292969 16.257812 12.425781 14.320312 14.320312 Z M 0 12.132812 C 0 16.917969 0.015625 20.507812 1.734375 22.265625 C 3.492188 23.984375 6.921875 24 11.867188 24 C 11.707031 18.6875 11.574219 16.257812 9.679688 14.320312 C 7.742188 12.425781 5.3125 12.292969 0 12.132812 Z M 11.867188 0 C 6.921875 0 3.492188 0.015625 1.734375 1.734375 C 0.015625 3.492188 0 7.082031 0 11.867188 C 5.3125 11.707031 7.742188 11.574219 9.683594 9.683594 C 11.574219 7.742188 11.707031 5.3125 11.867188 0 Z M 14.320312 9.683594 C 12.425781 7.742188 12.292969 5.3125 12.132812 0 C 17.078125 0 20.503906 0.015625 22.265625 1.734375 C 23.984375 3.492188 24 7.082031 24 11.867188 C 18.6875 11.707031 16.257812 11.574219 14.320312 9.683594 Z M 14.320312 9.683594 "/>
<path style=" stroke:none;fill-rule:evenodd;fill:rgb(100%,100%,100%);fill-opacity:1;" d="M 24 12.132812 L 24 11.867188 C 18.6875 11.707031 16.257812 11.574219 14.320312 9.683594 C 12.425781 7.746094 12.292969 5.3125 12.132812 0 L 11.867188 0 C 11.707031 5.3125 11.574219 7.746094 9.679688 9.683594 C 7.742188 11.574219 5.3125 11.707031 0 11.867188 L 0 12.132812 C 5.3125 12.292969 7.742188 12.425781 9.679688 14.320312 C 11.574219 16.257812 11.707031 18.6875 11.867188 24 L 12.132812 24 C 12.292969 18.6875 12.425781 16.257812 14.320312 14.320312 C 16.257812 12.425781 18.6875 12.292969 24 12.132812 Z M 24 12.132812 "/>
</g>
</svg>
